<svg id="prefix__coolblock" xmlns="http://www.w3.org/2000/svg" version="1.1" viewBox="0 0 1708 364"><defs><linearGradient id="prefix__linear-gradient" x1="0" y1="184" x2="316.121" y2="184" gradientTransform="matrix(1 0 0 -1 0 366)" gradientUnits="userSpaceOnUse"><stop offset=".45" stop-color="#00cae0"/><stop offset=".58" stop-color="#09aaca"/><stop offset=".76" stop-color="#2084af"/><stop offset=".91" stop-color="#2d6f9f"/><stop offset="1" stop-color="#346699"/></linearGradient><linearGradient id="prefix__linear-gradient1" x1="374.588" y1="234.017" x2="1707.906" y2="234.017" gradientTransform="matrix(1 0 0 -1 0 366)" gradientUnits="userSpaceOnUse"><stop offset=".45" stop-color="#00cae0"/><stop offset=".58" stop-color="#09aaca"/><stop offset=".76" stop-color="#2084af"/><stop offset=".91" stop-color="#2d6f9f"/><stop offset="1" stop-color="#346699"/></linearGradient><style>.prefix__st2{fill:#369}</style></defs><path d="M375.892 295.625v-54.51h5.602l30.019 44.668v-44.668h5.603v54.51h-5.603l-30.019-44.706v44.706h-5.602zm57.803 0v-54.51h34.069v5.337H439.26v18.852h23.962v5.337H439.26v19.646h28.504v5.337h-34.069zm44.592 0l18.889-27.596-18.397-26.915h6.738l14.953 22.258 14.952-22.258h6.776l-18.397 26.915 18.852 27.596h-6.738l-15.444-22.902-15.407 22.902h-6.777zm73.928 0v-49.173h-19.041v-5.337h43.646v5.337h-19.041v49.173h-5.564zm77.336 1.136c-3.836 0-7.293-.669-10.372-2.006s-5.697-3.243-7.855-5.716-3.804-5.457-4.94-8.953c-1.136-3.495-1.703-7.401-1.703-11.716 0-5.703.99-10.681 2.971-14.934 1.981-4.252 4.827-7.552 8.536-9.899 3.71-2.347 8.164-3.521 13.363-3.521 5.804 0 10.529 1.357 14.176 4.069 3.646 2.713 6.189 6.354 7.628 10.921l-5.603 1.363c-1.187-3.331-3.136-5.994-5.849-7.987s-6.088-2.991-10.126-2.991c-4.265-.024-7.811.928-10.637 2.858-2.827 1.93-4.953 4.631-6.378 8.101-1.426 3.47-2.152 7.476-2.176 12.019-.026 4.542.675 8.536 2.101 11.98 1.426 3.445 3.564 6.146 6.417 8.101 2.852 1.956 6.41 2.947 10.675 2.972 3.912 0 7.142-.757 9.691-2.271 2.548-1.514 4.485-3.684 5.811-6.511 1.325-2.826 2.075-6.17 2.252-10.032h-12.568v-4.77h18.397c.076.581.119 1.192.132 1.836.012.644.019 1.104.019 1.382 0 4.921-.884 9.318-2.65 13.192-1.767 3.874-4.423 6.927-7.968 9.161-3.546 2.233-7.994 3.35-13.344 3.35v.002zm37.513-1.136v-54.51h34.069v5.337h-28.504v18.852h23.962v5.337h-23.962v19.646h28.504v5.337h-34.069zm49.134 0v-54.51h5.602l30.019 44.668v-44.668h5.603v54.51h-5.603L721.8 250.919v44.706h-5.602zm57.803 0v-54.51h34.069v5.337h-28.504v18.852h23.962v5.337h-23.962v19.646h28.504v5.337h-34.069zm49.134 0v-54.51h21.047c.53 0 1.129.019 1.798.057.668.038 1.344.12 2.025.246 2.852.43 5.268 1.419 7.25 2.972 1.98 1.552 3.482 3.501 4.504 5.849 1.022 2.347 1.533 4.946 1.533 7.798 0 4.114-1.085 7.685-3.256 10.713-2.17 3.028-5.274 4.934-9.312 5.716l-1.931.454h-18.094v20.707h-5.564v-.002zm5.565-26.006h15.331c.454 0 .984-.025 1.59-.076.605-.05 1.198-.139 1.779-.265 1.867-.403 3.4-1.173 4.599-2.309a10.76 10.76 0 002.687-4.05c.593-1.564.89-3.192.89-4.883s-.297-3.325-.89-4.902-1.489-2.934-2.687-4.069c-1.199-1.135-2.732-1.905-4.599-2.309a11.902 11.902 0 00-1.779-.246 25.81 25.81 0 00-1.59-.057H828.7v23.167zm27.444 26.006l-10.75-22.183 5.337-2.044 11.811 24.227h-6.398zm16.921 0l18.776-54.51h7.381l18.776 54.51h-5.793l-17.829-51.406h2.195l-17.715 51.406h-5.792.001zm8.366-13.211v-5.224h28.163v5.224h-28.163zm59.317 13.211v-49.173h-19.041v-5.337h43.646v5.337h-19.041v49.173h-5.564zm37.4 0v-54.51h5.564v54.51h-5.564zm44.97 1.136c-5.427 0-10.007-1.205-13.741-3.615-3.735-2.41-6.562-5.748-8.479-10.012-1.918-4.265-2.877-9.186-2.877-14.763s.959-10.498 2.877-14.763c1.917-4.265 4.744-7.603 8.479-10.013 3.734-2.41 8.314-3.615 13.741-3.615s10.037 1.206 13.76 3.615c3.722 2.41 6.549 5.748 8.479 10.013 1.931 4.265 2.896 9.186 2.896 14.763s-.965 10.499-2.896 14.763-4.758 7.603-8.479 10.012c-3.723 2.41-8.31 3.615-13.76 3.615zm0-5.338c4.264 0 7.822-.971 10.675-2.915 2.852-1.943 4.99-4.649 6.416-8.12 1.426-3.47 2.139-7.476 2.139-12.019s-.713-8.542-2.139-12c-1.426-3.457-3.564-6.157-6.416-8.101-2.853-1.943-6.411-2.927-10.675-2.953-4.266 0-7.812.972-10.638 2.915s-4.953 4.65-6.378 8.12c-1.427 3.47-2.152 7.476-2.177 12.019-.025 4.542.675 8.536 2.101 11.98 1.426 3.445 3.564 6.146 6.416 8.101 2.852 1.956 6.41 2.947 10.676 2.972zm38.687 4.202v-54.51h5.603l30.019 44.668v-44.668h5.603v54.51h-5.603l-30.019-44.706v44.706h-5.603zm78.926 0v-54.51h16.542c.58 0 1.571.013 2.972.038 1.4.025 2.744.126 4.031.303 4.139.581 7.596 2.12 10.372 4.618s4.858 5.678 6.246 9.539 2.082 8.114 2.082 12.757-.694 8.896-2.082 12.757c-1.388 3.861-3.47 7.041-6.246 9.539s-6.233 4.038-10.372 4.618a43.9 43.9 0 01-4.05.284c-1.438.038-2.423.057-2.953.057h-16.542zm5.753-5.338h10.788c1.034 0 2.151-.031 3.351-.095 1.198-.062 2.227-.183 3.085-.359 3.18-.555 5.747-1.842 7.703-3.861 1.955-2.019 3.388-4.548 4.297-7.59.908-3.041 1.362-6.378 1.362-10.012 0-3.659-.454-7.016-1.362-10.069-.909-3.053-2.348-5.577-4.315-7.571-1.969-1.994-4.53-3.268-7.685-3.824-.858-.176-1.899-.296-3.123-.359a66.267 66.267 0 00-3.312-.095h-10.788v43.835zm45.767 5.338l18.775-54.51h7.382l18.775 54.51h-5.792l-17.829-51.406h2.195l-17.716 51.406h-5.791zm8.365-13.211v-5.224h28.164v5.224h-28.164zm59.318 13.211v-49.173h-19.041v-5.337h43.646v5.337h-19.041v49.173h-5.564zm31.344 0l18.775-54.51h7.382l18.775 54.51h-5.792l-17.829-51.406h2.195l-17.716 51.406h-5.791zm8.366-13.211v-5.224h28.164v5.224h-28.164zm69.918 14.347c-5.427 0-10.007-1.205-13.741-3.615-3.735-2.41-6.562-5.748-8.479-10.012-1.918-4.265-2.877-9.186-2.877-14.763s.959-10.498 2.877-14.763c1.917-4.265 4.744-7.603 8.479-10.013 3.734-2.41 8.314-3.615 13.741-3.615 6.334 0 11.507 1.622 15.52 4.864 4.013 3.243 6.763 7.59 8.253 13.041l-5.679 1.476c-1.161-4.315-3.243-7.734-6.246-10.258-3.003-2.523-6.952-3.786-11.848-3.786-4.266 0-7.812.972-10.638 2.915-2.826 1.943-4.953 4.65-6.378 8.12-1.427 3.47-2.165 7.476-2.215 12.019-.025 4.542.675 8.542 2.101 12s3.571 6.165 6.436 8.12c2.864 1.956 6.429 2.934 10.694 2.934 4.896 0 8.845-1.268 11.848-3.805 3.003-2.536 5.085-5.949 6.246-10.239l5.679 1.476c-1.49 5.451-4.24 9.798-8.253 13.041s-9.186 4.864-15.52 4.864zm38.081-1.136v-54.51h34.068v5.337h-28.504v18.852h23.962v5.337h-23.962v19.646h28.504v5.337h-34.068zm49.134 0v-54.51h5.603l30.019 44.668v-44.668h5.603v54.51h-5.603l-30.019-44.706v44.706h-5.603zm72.301 0v-49.173h-19.041v-5.337h43.646v5.337h-19.041v49.173h-5.564zm36.644 0v-54.51h34.068v5.337h-28.504v18.852h23.962v5.337h-23.962v19.646h28.504v5.337h-34.068zm49.134 0v-54.51h21.047c.53 0 1.129.019 1.798.057.669.038 1.344.12 2.025.246 2.852.43 5.268 1.419 7.249 2.972 1.98 1.552 3.482 3.501 4.505 5.849 1.021 2.347 1.533 4.946 1.533 7.798 0 4.114-1.086 7.685-3.256 10.713-2.171 3.028-5.274 4.934-9.312 5.716l-1.93.454h-18.095v20.707h-5.564v-.002zm5.564-26.006h15.331c.454 0 .984-.025 1.59-.076.605-.05 1.198-.139 1.779-.265 1.867-.403 3.4-1.173 4.599-2.309s2.095-2.485 2.688-4.05c.592-1.564.89-3.192.89-4.883s-.298-3.325-.89-4.902a10.732 10.732 0 00-2.688-4.069c-1.198-1.135-2.731-1.905-4.599-2.309a11.902 11.902 0 00-1.779-.246 25.783 25.783 0 00-1.59-.057h-15.331v23.167zm27.444 26.006l-10.751-22.183 5.338-2.044 11.811 24.227h-6.398zm39.633 1.136c-3.811 0-7.236-.638-10.277-1.912s-5.552-3.085-7.533-5.432c-1.981-2.347-3.274-5.135-3.88-8.366l5.679-.947c.908 3.534 2.825 6.303 5.753 8.309 2.928 2.006 6.423 3.01 10.486 3.01 2.675 0 5.072-.422 7.192-1.268 2.119-.845 3.785-2.05 4.996-3.615 1.212-1.564 1.817-3.419 1.817-5.564 0-1.413-.253-2.618-.757-3.615a7.31 7.31 0 00-2.007-2.479 12.895 12.895 0 00-2.726-1.646 23.252 23.252 0 00-2.877-1.079l-13.816-4.126a24.22 24.22 0 01-4.618-1.836c-1.414-.744-2.644-1.64-3.69-2.688a11.145 11.145 0 01-2.442-3.69c-.58-1.413-.87-3.028-.87-4.846 0-3.079.808-5.741 2.423-7.987 1.614-2.246 3.823-3.975 6.624-5.186 2.802-1.211 5.993-1.804 9.577-1.779 3.634 0 6.883.644 9.748 1.931 2.863 1.287 5.229 3.123 7.098 5.508 1.867 2.385 3.104 5.205 3.709 8.46l-5.829 1.06c-.379-2.372-1.249-4.429-2.612-6.17-1.362-1.742-3.098-3.085-5.205-4.032s-4.423-1.432-6.946-1.458c-2.447 0-4.624.411-6.529 1.23-1.906.82-3.414 1.937-4.523 3.35-1.111 1.414-1.666 3.028-1.666 4.845 0 1.843.511 3.319 1.533 4.429 1.022 1.111 2.283 1.981 3.785 2.612a38.898 38.898 0 004.372 1.552l10.675 3.142c1.11.303 2.417.738 3.918 1.306 1.502.568 2.966 1.375 4.392 2.423s2.605 2.417 3.539 4.107c.934 1.691 1.4 3.836 1.4 6.435 0 2.524-.498 4.783-1.495 6.776s-2.397 3.672-4.201 5.034c-1.805 1.363-3.912 2.404-6.322 3.123s-5.041 1.079-7.893 1.079h-.002z" fill="#34669a"/><path class="prefix__st2" d="M0 91.193v181.615l157.283 90.807v-59.18L51.255 243.217V120.783L0 91.193z"/><path class="prefix__st2" d="M157.284 182.001l-69.191-39.949v79.896l69.191 39.949v-79.896z"/><path d="M226.476 142.052v79.896l-69.191 39.949v-79.896l69.191-39.949zm-69.192 162.383l106.029-61.218 51.253 29.591-157.284 90.807v-59.18h.002zM0 91.193L157.283.385l157.284 90.808-51.253 29.59-106.029-61.216-106.029 61.216L0 91.193z" fill="url(#prefix__linear-gradient)"/><path id="prefix__coolblock1" d="M920.525 180.492h70.867v32.006H888.519V51.683h32.006v128.809zM851.177 73.863c15.433 15.924 23.902 36.545 23.902 58.12s-8.469 42.197-23.846 58.062c-15.5 15.74-36.151 24.392-58.176 24.392-21.805 0-42.93-8.89-57.96-24.391-15.379-15.866-23.848-36.487-23.848-58.063s8.469-42.197 23.847-58.063l.028-.029c15.244-15.482 36.36-24.362 57.933-24.362 21.788 0 42.428 8.642 58.12 24.334zm-22.758 93.484c9.297-9.504 14.438-22.077 14.438-35.363s-5.135-25.842-14.459-35.383c-9.447-9.437-22.327-14.849-35.342-14.849s-25.67 5.406-34.894 14.83c-9.489 9.489-14.693 22.048-14.693 35.402s5.204 25.913 14.654 35.363c9.263 9.463 21.981 14.869 34.932 14.869 13.024 0 25.913-5.42 35.363-14.869zm-329.92-18.057c-6.91 20.346-23.777 32.494-45.119 32.494-12.514 0-24.356-5.175-33.345-14.572-9.084-9.497-14.087-21.855-14.087-34.799 0-13.412 4.871-25.594 14.087-35.229 8.989-9.397 20.831-14.572 33.345-14.572 21.01 0 36.991 11.158 43.846 30.612l1.206 3.422h31.753l-1.616-6.384c-4.509-17.808-13.915-32.785-27.204-43.309-13.324-10.554-29.917-16.132-47.985-16.132-20.723 0-41.065 8.734-55.809 23.962l-.057.059c-14.784 15.771-22.926 36.216-22.926 57.571 0 21.077 8.142 41.37 22.955 57.17 14.746 15.471 34.576 23.991 55.837 23.991 36.95 0 66.886-24.095 76.268-61.387l1.604-6.376h-31.571l-1.181 3.478zm178.639-75.427c15.433 15.924 23.902 36.545 23.902 58.12s-8.469 42.197-23.846 58.062c-15.5 15.74-36.151 24.392-58.176 24.392-21.805 0-42.93-8.89-57.96-24.391-15.379-15.866-23.848-36.487-23.848-58.063s8.469-42.197 23.847-58.063l.028-.029c15.244-15.482 36.36-24.362 57.933-24.362 21.788 0 42.428 8.642 58.12 24.334zm-22.758 93.484c9.297-9.504 14.438-22.077 14.438-35.363s-5.135-25.842-14.459-35.383c-9.447-9.437-22.327-14.849-35.342-14.849s-25.67 5.406-34.894 14.83c-9.489 9.489-14.693 22.048-14.693 35.402s5.204 25.913 14.654 35.363c9.263 9.463 21.981 14.869 34.932 14.869 13.024 0 25.913-5.42 35.363-14.869zm914.564 45.151h31.791V51.683h-31.791v160.815zm71.009-81.082l61.35-79.732h-40.324l-55.126 73.201v14.538l60.22 73.075h41.833l-67.953-81.083zm-113.812 17.874c-6.91 20.346-23.777 32.494-45.12 32.494-12.514 0-24.357-5.175-33.344-14.572-9.085-9.497-14.088-21.856-14.088-34.799 0-13.412 4.871-25.594 14.088-35.229 8.987-9.397 20.83-14.572 33.344-14.572 21.01 0 36.992 11.158 43.846 30.612l1.205 3.422h31.754l-1.617-6.384c-4.508-17.808-13.915-32.785-27.203-43.309-13.324-10.554-29.918-16.132-47.986-16.132-20.723 0-41.064 8.734-55.808 23.962l-.057.059c-14.785 15.769-22.926 36.214-22.926 57.571 0 21.078 8.142 41.372 22.955 57.17 14.745 15.471 34.575 23.991 55.836 23.991 36.949 0 66.887-24.095 76.268-61.387l1.605-6.376h-31.571l-1.181 3.478zm-360.07-97.607h-32.007v160.815h102.873v-32.006h-70.866V51.683zm200.97 22.18c15.434 15.924 23.903 36.545 23.903 58.12s-8.469 42.198-23.847 58.062c-15.499 15.74-36.15 24.392-58.175 24.392-21.804 0-42.929-8.89-57.96-24.391-15.378-15.866-23.847-36.487-23.847-58.063s8.469-42.197 23.846-58.063l.029-.029c15.244-15.482 36.359-24.362 57.932-24.362 21.788 0 42.428 8.642 58.119 24.334zm-22.756 93.484c9.297-9.504 14.438-22.077 14.438-35.363s-5.134-25.842-14.459-35.383c-9.448-9.437-22.328-14.849-35.342-14.849s-25.669 5.406-34.894 14.83c-9.488 9.489-14.693 22.048-14.693 35.402s5.204 25.913 14.653 35.363c9.264 9.463 21.981 14.869 34.933 14.869 13.024 0 25.913-5.42 35.363-14.869h.001zm-221.074-5.423c0 25.133-16.78 50.574-48.852 50.574h-73.192V51.683h67.807c19.18 0 34.261 10.203 41.377 27.994 6.629 16.333 3.969 32.467-6.78 43.758 12.427 8.131 19.64 22.015 19.64 38.489zm-41.805-65.103c0-5.278-2.619-14.209-12.431-14.209h-36.017v28.953h35.586c3.989 0 7.181-1.452 9.484-4.315 2.147-2.668 3.379-6.469 3.379-10.429h-.001zm9.799 65.318c0-9.047-5.272-18.784-16.846-18.784h-41.402v37.783h41.402c11.574 0 16.846-9.848 16.846-18.999z" fill="url(#prefix__linear-gradient1)"/></svg>